<?xml version="1.0" encoding="UTF-8"?>
<!DOCTYPE svg PUBLIC "-//W3C//DTD SVG 1.1//EN" "http://www.w3.org/Graphics/SVG/1.1/DTD/svg11.dtd">
<!-- Creator: CorelDRAW -->
<svg xmlns="http://www.w3.org/2000/svg" xml:space="preserve" width="79.3425mm" height="158.994mm" version="1.1" style="shape-rendering:geometricPrecision; text-rendering:geometricPrecision; image-rendering:optimizeQuality; fill-rule:evenodd; clip-rule:evenodd"
viewBox="0 0 7933.92 15898.76"
 xmlns:xlink="http://www.w3.org/1999/xlink"
 xmlns:xodm="http://www.corel.com/coreldraw/odm/2003">
 <defs>
  <style type="text/css">
   <![CDATA[
    .fil0 {fill:#FEFEFE;fill-rule:nonzero}
   ]]>
  </style>
 </defs>
 <g id="Capa_x0020_1">
  <metadata id="CorelCorpID_0Corel-Layer"/>
  <path class="fil0" d="M7109.89 4424.95c-318.81,364.58 -670.95,695.3 -1022.84,1024.43 -351.89,329.13 -706.98,655.63 -1033.73,1007.78 -163.97,174.77 -319.17,361.42 -460.38,555.78 -142.21,194.07 -260.46,406.08 -349.06,629.82 170.07,-451.69 467.71,-847.88 791.43,-1201.53 646.06,-713.06 1404.89,-1322.58 2028.75,-2055.19 398.51,-465.35 787.32,-1060.75 787.32,-1695.88 0,-888.65 -768.74,-1900.06 -1707.77,-1900.06 -768.48,0 -1599.86,576.83 -2122.12,1103.72 -407.63,-669.89 -1001.08,-1105.85 -1811.89,-1105.85 -1278.65,0 -2048.2,1085.67 -2048.2,2276.66 0,973.57 572.02,1790.3 1217.93,2467.88 653.97,694.61 1410.26,1294.45 2117.63,1932.97 579.56,523.53 1199.63,1138.16 1492.8,1880.59 317.01,802.81 274.59,1672.64 -381.37,2291.52 -364.82,344.21 -812.8,513.88 -1259.17,482.55 -373.47,-26.21 -743.69,-224.98 -931.51,-527.58 -179.01,-288.39 -198.81,-635.47 -164.6,-967.15 91.15,-788.83 786.73,-1446.31 1598.07,-1450.04l1.79 0.01 0 100.28 -2.64 0c-570.08,0 -1141.58,393.64 -1363.26,917.5 -169.39,395.52 -187.97,955.83 39.02,1334.79 207.21,345.93 571.5,468.24 953.82,473.74 378.2,5.45 768.12,-206.92 1037.45,-461.94 224.22,-212.29 387.37,-481.32 469.54,-778.87 80.96,-296.59 76.2,-613.01 11.91,-916.48 -21.74,-101.31 -49.73,-202.86 -82.39,-301.55 -14.55,-44.45 -29.9,-88.37 -46.57,-132.28 -1.85,-4.5 -3.44,-9 -5.03,-13.49 -165.19,-446.88 -456.85,-816.94 -780.4,-1161.08 -649.11,-690.44 -1423.36,-1287.1 -2123.45,-1927.68 -699.16,-638.21 -1419.38,-1379.67 -1767.08,-2277 -237.08,-614.78 -231.08,-1308.52 -13.43,-1928.04 314.11,-862.58 1087.82,-1449.47 2020.46,-1449.47 767.42,0 1439.31,402.4 1844.54,1042.09 334.2,-311.84 728.05,-587.76 1142.24,-779.72 283.69,-133.13 627.23,-228.24 943.51,-228.24 993.47,0 1802.72,1044.1 1802.72,1988.24 0,172.02 -19.82,345.63 -74.81,508.54 -164.01,485.91 -412.37,858.14 -749.22,1240.24z"/>
  <path class="fil0" d="M5731.69 11578.22c-33.74,160.31 -94.52,314.25 -178.63,454.79 -85.27,138.3 -189.16,265.04 -308.21,375.51 -117.58,109.33 -242.56,211.76 -372.44,305.87 -256.37,191.02 -520.15,370.4 -740.8,599.26 -220.65,228.85 -396.86,500.31 -478.08,807.21 -81.22,306.9 -59.8,634.97 33.07,938.7 46.24,152.23 108.55,300.49 183.85,440.47 74.78,140.86 163.85,274.8 264.45,398.73 -102.76,-122.35 -194.5,-255.12 -272.28,-394.87 -78.14,-139.28 -143.22,-286.84 -192.41,-439.1 -49.87,-152.69 -80.62,-311.55 -90.63,-471.79 -1.7,-31.34 -2.69,-63.16 -2.69,-94.77 0,-129.61 15.61,-259.03 46.43,-384.89 77.79,-314.05 254.52,-597.14 476.23,-829.44 221.71,-232.3 486.55,-420.14 739.22,-613.27 126.89,-94.2 248.88,-197.79 363.12,-306.71 113.57,-107.94 212.55,-231.62 292.75,-366.05 78.41,-135.15 134.27,-282.43 164.63,-435.56 22.94,-120.5 34.82,-243.77 34.82,-366.79 0,-33.49 -0.95,-67.69 -2.61,-100.94 -10.58,-314.58 -66.68,-630.74 -201.87,-912.51 -66.65,-140.24 -154.64,-270.35 -260.12,-384.48 -39.05,-42.08 -81.53,-82.27 -125.41,-119.28 -59.22,-50.16 -122.82,-96.04 -189.17,-136.25 -16.67,-10.05 -33.34,-19.84 -50.27,-29.37 -271.98,-151.33 -584.97,-221.45 -897.43,-235.2 -38.36,-1.59 -76.73,-2.65 -115.09,-2.65l0.05 -99.46c39.95,0 79.38,1.85 119.86,3.7 308.23,16.14 619.62,84.93 896.37,231.5 13.76,7.41 26.46,14.82 41.28,22.49 142.79,81.05 273.76,184.44 384.94,305.26 110.57,121.45 202.56,259.05 271.95,407.94 139.69,297.12 194.46,624.65 203.19,946.64 1.22,28.79 1.95,58.54 1.95,87.55 0,133.36 -13.65,266.97 -39.99,397.64l-0.03 0.13z"/>
  <polygon class="fil0" points="2444.38,12038.31 2518.73,12251.02 2731.18,12325.37 2518.73,12399.44 2444.38,12611.91 2370.03,12399.44 2157.58,12325.37 2370.03,12251.02 "/>
  <polygon class="fil0" points="2220.82,11689.6 2262.62,11809.19 2382.2,11850.99 2262.62,11892.8 2220.82,12012.38 2179.01,11892.8 2059.69,11850.99 2179.01,11809.19 "/>
  <polygon class="fil0" points="3872.01,14400.94 3913.82,14520.53 4033.13,14562.06 3913.82,14604.13 3872.01,14723.45 3830.21,14604.13 3710.63,14562.06 3830.21,14520.53 "/>
  <polygon class="fil0" points="2059.69,12012.38 2090.64,12101.01 2179.01,12131.97 2090.64,12162.92 2059.69,12251.29 2028.74,12162.92 1940.1,12131.97 2028.74,12101.01 "/>
  <polygon class="fil0" points="5497.28,9762.19 5571.63,9974.65 5784.08,10048.99 5571.63,10123.33 5497.28,10335.78 5422.93,10123.33 5210.48,10048.99 5422.93,9974.65 "/>
  <polygon class="fil0" points="4780.55,9915.91 4822.36,10035.49 4941.94,10077.03 4822.36,10118.84 4780.55,10238.42 4738.75,10118.84 4619.17,10077.03 4738.75,10035.49 "/>
  <polygon class="fil0" points="4758.06,9602.39 4789.02,9691.03 4877.65,9721.98 4789.02,9752.93 4758.06,9841.56 4727.11,9752.93 4638.48,9721.98 4727.11,9691.03 "/>
  <polygon class="fil0" points="1248.51,0 1353.01,298.97 1652.25,403.47 1353.01,507.98 1248.51,806.95 1144,507.98 845.03,403.47 1144,298.97 "/>
  <polygon class="fil0" points="728.63,511.42 805.09,730.49 1024.42,806.95 805.09,883.67 728.63,1102.74 651.9,883.67 432.83,806.95 651.9,730.49 "/>
  <polygon class="fil0" points="489.45,283.89 520.41,372.52 609.04,403.47 520.41,434.43 489.45,523.06 458.5,434.43 369.86,403.47 458.5,372.52 "/>
  <polygon class="fil0" points="4619.17,7300.61 4668.11,7440.3 4807.54,7488.99 4668.11,7537.94 4619.17,7677.63 4570.48,7537.94 4430.79,7488.99 4570.48,7440.3 "/>
  <polygon class="fil0" points="4083.4,7300.61 4121.5,7409.61 4230.5,7447.71 4121.5,7485.81 4083.4,7594.55 4045.3,7485.81 3936.31,7447.71 4045.3,7409.61 "/>
  <polygon class="fil0" points="4342.95,7653.81 4373.91,7742.45 4462.53,7773.41 4373.91,7804.36 4342.95,7892.99 4311.99,7804.36 4223.36,7773.41 4311.99,7742.45 "/>
  <polygon class="fil0" points="3373.29,14562.06 3404.25,14650.69 3492.61,14681.65 3404.25,14712.61 3373.29,14801.23 3342.34,14712.61 3253.7,14681.65 3342.34,14650.69 "/>
  <path class="fil0" d="M3686.28 14801.23c-20.65,-68.7 -31.3,-140.2 -31.3,-211.99 0,-16.56 0.63,-33.21 1.7,-49.68 4.5,-89.05 25.65,-176.81 62.13,-258.23 35.61,-81.76 86.59,-156.23 149.74,-219.05 31.04,-31.27 64.73,-60.71 100.04,-87.09 8.2,-7.02 17.09,-13.34 26.45,-18.76l28.31 -17.2c18.79,-11.64 37.57,-23.02 56.36,-33.87 -34.13,26.46 -71.17,51.06 -103.72,79.38 -33.01,27.95 -64.43,58.61 -93.13,91.01 -13.76,16.67 -28.84,32.01 -42.07,49.21l-37.04 52.92c-12.08,17.73 -23.18,36.38 -32.8,55.55l-15.61 28.31c-5.29,9.26 -8.47,19.58 -12.96,29.37 -35.06,78.89 -57.6,163.32 -66.11,249.25 -2.12,21.43 -2.91,43.13 -4.76,64.82 -1.85,21.69 0,43.39 0,65.09 1.26,43.87 6.33,87.86 14.82,130.97l-0.06 0z"/>
  <path class="fil0" d="M3527.53 14593.28c-4.68,-46.19 -14.2,-91.97 -28.07,-136.23 -13.42,-43.84 -32.14,-86.01 -55.52,-125.42 -22.96,-39.63 -51.3,-76.12 -83.9,-108.23 -32.46,-32.68 -67.97,-62.54 -105.79,-88.86 10.58,4.76 21.43,9.79 32.01,15.08 10.85,4.68 21.4,10.32 31.46,16.63 20.4,12.26 39.82,26.41 57.71,42.06 18.12,15.53 35.26,32.67 50.78,50.82 7.94,9 14.29,19.31 21.43,28.84 7.23,9.6 13.85,19.85 19.6,30.43 24.45,40.96 42.41,85.72 52.9,132.27 6.93,30.29 10.46,61.34 10.46,92.44 0,16.76 -1.06,33.57 -3.08,50.18l0.01 0z"/>
  <path class="fil0" d="M3390.76 14469.73c-32.73,-13.19 -66.78,-24.14 -101.09,-32.3 -34.13,-8.47 -68.53,-15.08 -103.19,-20.11 -34.66,-5.03 -69.59,-8.47 -105.83,-10.85l-105.83 -5.56c17.73,-4.23 35.45,-7.41 52.92,-10.58 17.47,-3.17 35.72,-4.23 52.92,-4.5 8.38,-0.3 16.86,-0.52 25.26,-0.52 27.75,0 55.5,1.96 82.96,5.8 35.98,5.22 71.59,14.14 105.82,26.46 34.72,11.82 67.26,29.5 96.06,52.15l0 0.01z"/>
  <path class="fil0" d="M3780.47 14395.91c17.51,-32.69 41.52,-61.63 70.37,-84.93 28.39,-24.03 60.33,-43.79 94.49,-58.47 33.74,-14.49 69.41,-24.55 105.79,-29.65 18.23,-2.45 36.84,-3.87 55.29,-3.98 18.54,0.02 36.8,1.35 54.79,3.99 -36.25,5.82 -71.44,11.64 -105.83,20.37l-26.46 6.61 -26.46 8.2c-16.93,4.76 -33.07,12.17 -49.48,18.52 -32.29,13.92 -63.44,31.07 -92.6,50.83 -28.9,19.97 -55.73,43.01 -79.89,68.48l-0.01 0.03z"/>
  <path class="fil0" d="M5717.67 11850.99c19.18,-40.16 36.4,-81.75 50.99,-123.76 15.61,-41.54 29.1,-84.14 42.07,-126.73 26.46,-85.2 46.3,-171.7 64.56,-258.75l13.49 -65.35 11.64 -65.88c8.73,-43.66 13.76,-88.11 21.43,-132.28 13.23,-88.11 23.02,-176.73 33.87,-264.57 0,44.71 -1.85,89.43 -2.91,134.13 -1.06,44.71 -6.09,89.43 -10.85,134.13 -8.61,88.79 -22.71,178.58 -40.79,265.93 -18.02,87.5 -42.1,174.88 -71.14,259.65 -28.32,84.96 -66.01,166.71 -112.31,243.43l-0.05 0.05z"/>
  <path class="fil0" d="M5532.47 11782.73c9.53,-29.37 18.26,-59 24.87,-88.9 6.61,-29.9 12.96,-60.06 17.73,-90.22 9.55,-59.36 14.29,-119.88 14.29,-180.11 0,-0.7 0,-1.81 0,-2.51 0.05,-3.54 0.05,-7.12 0.05,-10.71 0,-57.36 -4.74,-114.86 -14.08,-171.31 -9.96,-60.38 -24.5,-120.84 -42.81,-179.34 6.61,14.02 13.23,28.05 19.31,42.33 6.59,14.02 12.58,28.5 17.67,43.14 10.57,29.36 19.48,59.68 26.52,89.99 7.18,30.33 12.57,61.43 16.06,92.35 1.85,15.61 2.12,31.22 3.18,46.83 0.34,7.75 0.62,15.69 0.62,23.51 0,7.82 -0.28,15.76 -0.62,23.53 0.02,0 0.02,0.1 0.02,0.1 0,62.24 -7.1,124.46 -20.88,185.08 -12.56,61.19 -33.47,120.68 -61.9,176.28l-0.03 -0.03z"/>
  <path class="fil0" d="M2157.58 10957.79c17.53,77.16 26.47,156.33 26.47,235.51 0,0.39 0,0.91 0,1.3 0.03,2.35 0.03,5.19 0.03,7.61 0,77.32 -7.82,154.77 -23.02,230.52 -16.09,78.45 -42.95,154.68 -79.39,226.14 -36.4,71.2 -84.26,136.09 -141.53,191.84 11.64,-16.14 23.28,-32.28 35.19,-47.89 5.82,-7.94 11.91,-15.61 17.46,-23.81l15.08 -26.46c9.79,-16.93 21.17,-33.07 30.16,-50.54l26.46 -52.92c31.62,-71.49 55.68,-146.49 71.41,-222.99 15.39,-76.78 25.28,-154.97 28.64,-233.17 1.85,-39.42 2.38,-79.38 0,-118.27 -2.38,-38.89 -3.24,-77.47 -6.95,-116.89z"/>
  <path class="fil0" d="M2275.32 11421.32c22,82.66 51.94,163.87 88.93,241.06 73.19,154.59 171.87,296.26 291.1,418.71 59.84,60.99 125.01,118.27 192.89,170.14 -18.26,-11.38 -36.51,-23.02 -54.5,-34.93 -17.99,-11.91 -36.51,-23.02 -52.92,-36.78 -34.53,-26.08 -67.86,-54.34 -99.36,-83.84 -63.76,-58.93 -121.11,-125.19 -170.1,-196.85 -49.77,-71.15 -91.72,-148.08 -124.81,-228.36 -16.67,-40.22 -30.96,-80.96 -43.66,-122.49 -12.27,-41.43 -21.63,-83.84 -27.58,-126.67l0.01 0.01z"/>
  <path class="fil0" d="M2731.18 12000.47c17.86,18.43 37.15,35.75 57.41,51.57 19.84,16.4 40.75,31.49 61.38,46.57 42.07,29.63 85.46,56.89 129.9,82.55 44.45,25.66 89.69,50.01 135.19,74.08l138.63 70.11c-26.46,-6.88 -49.74,-15.35 -74.61,-23.02 -24.87,-7.67 -48.95,-18.26 -72.76,-28.31 -47.91,-20.27 -95.12,-43.95 -139.96,-70.15 -45.25,-25.95 -88.58,-55.87 -128.83,-89.08 -40.98,-32.48 -76.93,-71.16 -106.36,-114.34l0 0.02z"/>
  <path class="fil0" d="M-0 2554.18c0.49,-127.08 12.84,-254.52 35.96,-379.33 22.52,-125.92 55.49,-250.09 97.94,-370.53 43.27,-119.98 99.4,-235.72 167.09,-343.82 34.3,-53.5 72.78,-105.26 113.87,-153.69 41.74,-47.46 87.45,-91.98 136,-132.31 -90.09,88.85 -168.8,189.22 -233.43,298.08 -63.96,108.39 -117.32,223.32 -158.68,342.03 -43,118.48 -77.36,241.08 -102.58,364.32 -13.58,61.48 -24.69,122.86 -33.95,186.36 -9.26,63.5 -16.93,125.66 -22.22,188.9z"/>
  <path class="fil0" d="M256.63 3196.83c-4.25,-52.5 -6.58,-105.53 -6.58,-158.31 0,-57.68 2.79,-116.29 7.91,-173.49 9.73,-110.36 28.23,-220.8 54.34,-328.53 27.2,-107.75 65.59,-213.57 113.1,-314.11 48.57,-99.35 110.39,-192.38 183.12,-275.74 -32.04,44.35 -62.46,91.25 -89.73,138.73 -13.23,24.08 -28.58,47.1 -40.22,71.97l-35.19 74.61c-44.01,100.28 -79.81,204.66 -105.9,311.13 -26.42,106.22 -46.86,215.19 -59.55,323.86 -6.88,54.77 -12.17,109.54 -15.35,164.56 -3.18,55.03 -5.43,110.03 -5.96,165.32z"/>
 </g>
</svg>
