<svg xmlns="http://www.w3.org/2000/svg" viewBox="0 0 3.75 7.52"><defs><style>.cls-1{fill:#fefefe;}</style></defs><g id="Capa_2" data-name="Capa 2">
<g id="Capa_1-2" data-name="Capa 1"><g id="Capa_1-3" data-name="Capa_1">

<path class="cls-1" d="M3.36,2.09c-.15.17-.32.33-.48.49s-.34.31-.49.47a2.88,2.88,0,0,0-.22.27A1.18,1.18,0,0,0,2,3.61a1.76,1.76,0,0,1,.37-.56c.31-.34.66-.63,1-1a1.3,1.3,0,0,0,.37-.8A.91.91,0,0,0,2.9.37,1.62,1.62,0,0,0,1.9.9,1,1,0,0,0,1,.37a1,1,0,0,0-1,1.08A1.77,1.77,0,0,0,.65,2.62c.31.32.67.61,1,.91a2.55,2.55,0,0,1,.71.89A.94.94,0,0,1,2.18,5.5a.83.83,0,0,1-.6.23.59.59,0,0,1-.44-.25A.73.73,0,0,1,1.07,5a.77.77,0,0,1,.75-.68h0v0h0a.71.71,0,0,0-.64.43.77.77,0,0,0,0,.63.51.51,0,0,0,.46.22.73.73,0,0,0,.49-.21.87.87,0,0,0,.22-.37.93.93,0,0,0,0-.44,1,1,0,0,0,0-.14.14.14,0,0,0,0-.06h0a1.84,1.84,0,0,0-.37-.55c-.31-.32-.67-.6-1-.91A3.12,3.12,0,0,1,.09,1.91,1.32,1.32,0,0,1,.09,1,1,1,0,0,1,1,.31,1,1,0,0,1,1.91.8,2.16,2.16,0,0,1,2.45.43,1.18,1.18,0,0,1,2.9.33a.94.94,0,0,1,.85.94,1,1,0,0,1,0,.24,1.66,1.66,0,0,1-.36.58Z"/>
<path class="cls-1" d="M2.71,5.47a1.43,1.43,0,0,1-.08.22c0,.06-.09.12-.15.18L2.3,6c-.12.09-.24.18-.35.28a.94.94,0,0,0-.22.39.82.82,0,0,0,0,.44,1,1,0,0,0,.09.21L2,7.52a1.22,1.22,0,0,1-.12-.19,1,1,0,0,1-.09-.21.87.87,0,0,1-.05-.22V6.85a1.1,1.1,0,0,1,0-.18.86.86,0,0,1,.23-.39A2.45,2.45,0,0,1,2.29,6l.17-.14a1.24,1.24,0,0,0,.14-.18,1.19,1.19,0,0,0,.08-.2,1.09,1.09,0,0,0,0-.18v0a1.11,1.11,0,0,0-.09-.43l-.13-.18-.06,0-.09-.07h0a.91.91,0,0,0-.42-.11H1.82v0h.06a1,1,0,0,1,.42.11h0a.86.86,0,0,1,.18.14.63.63,0,0,1,.13.2,1.13,1.13,0,0,1,.1.44v0a1.1,1.1,0,0,1,0,.18Z"/>
<polygon class="cls-1" points="1.16 5.69 1.19 5.79 1.29 5.83 1.19 5.86 1.16 5.96 1.12 5.86 1.02 5.83 1.12 5.79 1.16 5.69"/><polygon class="cls-1" points="1.05 5.53 1.07 5.58 1.13 5.6 1.07 5.62 1.05 5.68 1.03 5.62 0.97 5.6 1.03 5.58 1.05 5.53"/><polygon class="cls-1" points="1.83 6.81 1.85 6.87 1.91 6.88 1.85 6.9 1.83 6.96 1.81 6.9 1.75 6.88 1.81 6.87 1.83 6.81"/><polygon class="cls-1" points="0.97 5.68 0.99 5.72 1.03 5.74 0.99 5.75 0.97 5.79 0.96 5.75 0.92 5.74 0.96 5.72 0.97 5.68"/><polygon class="cls-1" points="2.6 4.62 2.63 4.71 2.73 4.75 2.63 4.79 2.6 4.89 2.56 4.79 2.46 4.75 2.56 4.71 2.6 4.62"/><polygon class="cls-1" points="2.26 4.69 2.28 4.74 2.34 4.76 2.28 4.78 2.26 4.84 2.24 4.78 2.18 4.76 2.24 4.74 2.26 4.69"/><polygon class="cls-1" points="2.25 4.54 2.26 4.58 2.31 4.6 2.26 4.61 2.25 4.65 2.23 4.61 2.19 4.6 2.23 4.58 2.25 4.54"/><polygon class="cls-1" points="0.59 0 0.64 0.14 0.78 0.19 0.64 0.24 0.59 0.38 0.54 0.24 0.4 0.19 0.54 0.14 0.59 0"/><polygon class="cls-1" points="0.34 0.24 0.38 0.34 0.48 0.38 0.38 0.42 0.34 0.52 0.31 0.42 0.2 0.38 0.31 0.34 0.34 0.24"/><polygon class="cls-1" points="0.23 0.13 0.25 0.18 0.29 0.19 0.25 0.2 0.23 0.25 0.22 0.2 0.17 0.19 0.22 0.18 0.23 0.13"/><polygon class="cls-1" points="2.18 3.45 2.21 3.52 2.27 3.54 2.21 3.56 2.18 3.63 2.16 3.56 2.1 3.54 2.16 3.52 2.18 3.45"/><polygon class="cls-1" points="1.93 3.45 1.95 3.5 2 3.52 1.95 3.54 1.93 3.59 1.91 3.54 1.86 3.52 1.91 3.5 1.93 3.45"/><polygon class="cls-1" points="2.05 3.62 2.07 3.66 2.11 3.67 2.07 3.69 2.05 3.73 2.04 3.69 2 3.67 2.04 3.66 2.05 3.62"/><polygon class="cls-1" points="1.59 6.88 1.61 6.93 1.65 6.94 1.61 6.96 1.59 7 1.58 6.96 1.54 6.94 1.58 6.93 1.59 6.88"/><path class="cls-1" d="M1.74,7a.38.38,0,0,1,0-.1v0a.27.27,0,0,1,0-.12.23.23,0,0,1,.07-.1.1.1,0,0,1,0,0h0l0,0-.05,0,0,0,0,0,0,0,0,0h0v0a.2.2,0,0,0,0,.11v0s0,0,0,0V7Z"/><path class="cls-1" d="M1.67,6.9a.25.25,0,0,0,0-.07.08.08,0,0,0,0,0l0-.06-.05,0h0l0,0,0,0h0v0a.14.14,0,0,1,0,.06.09.09,0,0,1,0,0v0Z"/><path class="cls-1" d="M1.6,6.84H1.51l.05,0,0,0Z"/><path class="cls-1" d="M1.79,6.81l0,0a.05.05,0,0,1,.05,0l0,0h0l-.05,0,0,0Z"/><path class="cls-1" d="M2.7,5.6l0-.06a.14.14,0,0,1,0-.06l0-.12V5.3s0,0,0-.06,0-.09,0-.13,0,0,0,.07v.06s0,.08,0,.12l0,.13L2.7,5.6Z"/><path class="cls-1" d="M2.62,5.57a.06.06,0,0,1,0,0s0,0,0,0V5.4h0V5.31a.24.24,0,0,1,0-.08v0l0,0v.07h0a.28.28,0,0,1,0,.09.24.24,0,0,1,0,.08Z"/><path class="cls-1" d="M1,5.18a.41.41,0,0,1,0,.11H1a.34.34,0,0,1,0,.1.36.36,0,0,1,0,.11.2.2,0,0,1-.06.09v0H1v0l0,0L1,5.4a.37.37,0,0,0,0-.11V5.18Z"/><path class="cls-1" d="M1.08,5.4a.36.36,0,0,0,0,.11.56.56,0,0,0,.14.2.24.24,0,0,0,.09.08h0l0,0-.05,0-.08-.09a.3.3,0,0,1-.06-.11.14.14,0,0,1,0-.06.13.13,0,0,1,0-.06Z"/><path class="cls-1" d="M1.29,5.67l0,0,0,0,.06,0,.06,0,.07,0h0l0,0-.07,0-.06,0-.05-.06Z"/><path class="cls-1" d="M0,1.21A1.1,1.1,0,0,1,0,1a1.16,1.16,0,0,1,0-.18A1.19,1.19,0,0,1,.14.69L.2.62S.24.57.26.56A.53.53,0,0,0,.15.7.46.46,0,0,0,.08.86.48.48,0,0,0,0,1a.29.29,0,0,0,0,.09s0,.06,0,.09Z"/><path class="cls-1" d="M.12,1.51V1.35l0-.15A.88.88,0,0,1,.2,1.05.38.38,0,0,1,.29.92.16.16,0,0,0,.25,1s0,0,0,0l0,0a.58.58,0,0,0,0,.14l0,.16a.17.17,0,0,1,0,.07v.08Z"/></g></g></g></svg>