<svg xmlns="http://www.w3.org/2000/svg" viewBox="0 0 299.89 600.95">
<defs>
<style>.cls-1{fill:#fff;}</style>
</defs>

<g id="Capa_2" data-name="Capa 2">
<g id="Capa_1-2" data-name="Capa 1">
<path class="cls-1" d="M297.05,120.37a98.28,98.28,0,0,1-11.69,25,184.82,184.82,0,0,1-16.62,21.89c-12.05,13.78-25.36,26.28-38.66,38.72S203.35,230.75,191,244.06a216.43,216.43,0,0,0-17.4,21,106.73,106.73,0,0,0-13.19,23.81,107,107,0,0,1,12.79-24.08,211.32,211.32,0,0,1,17.11-21.33c12.25-13.52,25.55-26,38.68-38.62s26.24-25.25,38-39.06A181.17,181.17,0,0,0,283.05,144a98,98,0,0,0,11.14-24.41,63.75,63.75,0,0,0,2-26.4,70.9,70.9,0,0,0-8.75-25.06A94.13,94.13,0,0,0,271.54,46.6a54.58,54.58,0,0,0-48.27-16,90.71,90.71,0,0,0-25.4,7.91,148.23,148.23,0,0,0-23.13,13.69c-3.65,2.61-7.21,5.37-10.67,8.24s-6.84,5.9-9.94,9L152,71.58,150.43,69a92.72,92.72,0,0,0-10.53-14.1,80.1,80.1,0,0,0-13.2-11.55,75.51,75.51,0,0,0-66.89-9.75A74.39,74.39,0,0,0,30.35,51.87,80.41,80.41,0,0,0,11.94,81.36,104.66,104.66,0,0,0,6.1,116a94.71,94.71,0,0,0,6.31,34.43,140.89,140.89,0,0,0,16.9,31.13A253.75,253.75,0,0,0,52.13,209.1c8.21,8.72,16.89,17,25.75,25.15,17.73,16.27,36.31,31.68,54.29,47.91,9,8.13,17.83,16.45,26.18,25.35s16.19,18.37,22.56,29a103.93,103.93,0,0,1,8,16.74c.89,2.3,1.69,4.64,2.42,7q.87,2.77,1.61,5.6c.44,1.71.86,3.43,1.22,5.16,2.52,12.11,2.71,25-.66,37.11A67.58,67.58,0,0,1,186,425.33a72,72,0,0,1-11.82,14.53,78,78,0,0,1-15,11.09,64.47,64.47,0,0,1-17.46,6.93,35.82,35.82,0,0,1-4.8.74c-.81.06-1.71.1-2.48.08l-2.33,0a73,73,0,0,1-9.31-.91,51.06,51.06,0,0,1-17.85-6.2,38.29,38.29,0,0,1-13.57-13.43,47.51,47.51,0,0,1-6.05-17.91,68,68,0,0,1-.67-9.33c0-1.55.07-3.1.1-4.66s.24-3.1.4-4.65A64.5,64.5,0,0,1,90,383.52a60.26,60.26,0,0,1,4.43-8.27,65.29,65.29,0,0,1,5.69-7.46,62.65,62.65,0,0,1,14.39-11.85,66.55,66.55,0,0,1,17.11-7.31,54.92,54.92,0,0,1,9.23-1.66c1.55-.13,3.17-.19,4.71-.17h.07v3.79h-.1c-1.48,0-2.88.06-4.33.19a50.24,50.24,0,0,0-8.56,1.61,62.53,62.53,0,0,0-23.15,12.09,64.19,64.19,0,0,0-6.26,6.08,60.92,60.92,0,0,0-5.23,7,56,56,0,0,0-4,7.71c-4.57,10.67-5.7,22.8-4.08,34.31a42.94,42.94,0,0,0,5.56,16.14,33.91,33.91,0,0,0,12,11.71,46.42,46.42,0,0,0,16.19,5.53,68,68,0,0,0,8.69.81l2.2,0a17.26,17.26,0,0,0,2-.07,30,30,0,0,0,4.13-.66,59.37,59.37,0,0,0,16.05-6.46,72,72,0,0,0,14-10.41,63.75,63.75,0,0,0,17.75-29.44c3.06-11.21,2.88-23.17.45-34.64a111.1,111.1,0,0,0-3.11-11.4c-.55-1.68-1.13-3.34-1.76-5-.07-.17-.13-.34-.19-.51a97.9,97.9,0,0,0-7.61-15.89c-6.07-10.1-13.72-19.31-21.89-28s-17-16.93-25.88-25c-17.88-16.09-36.5-31.5-54.38-47.86-8.95-8.17-17.72-16.58-26-25.45a258.94,258.94,0,0,1-23.29-28.22,146.76,146.76,0,0,1-17.5-32.39A100.1,100.1,0,0,1,.61,115.94,109.87,109.87,0,0,1,6.82,79.5,89.8,89.8,0,0,1,15,62.73,81.53,81.53,0,0,1,26.57,48.11,79.61,79.61,0,0,1,58.18,28.69,80.58,80.58,0,0,1,129.5,39.35a85.55,85.55,0,0,1,14,12.3A94.13,94.13,0,0,1,152.9,64.1c2.69-2.51,5.42-4.87,8.24-7.19q5.34-4.39,11-8.37a152,152,0,0,1,23.93-13.91,95,95,0,0,1,26.63-8,65.33,65.33,0,0,1,14-.44A58.33,58.33,0,0,1,250.58,29,61.29,61.29,0,0,1,274.1,44a98,98,0,0,1,16.31,22.42,74.4,74.4,0,0,1,8.93,26.28A66.74,66.74,0,0,1,297.05,120.37Z"/>
<path class="cls-1" d="M216.64,437.62a56,56,0,0,1-6.75,17.19A68,68,0,0,1,198.24,469a151.74,151.74,0,0,1-14.08,11.57c-9.69,7.22-19.66,14-28,22.65s-15,18.91-18.07,30.51-2.26,24,1.25,35.48a91.43,91.43,0,0,0,6.95,16.64,93.81,93.81,0,0,0,10,15.07A94.06,94.06,0,0,1,146,586a91.18,91.18,0,0,1-7.28-16.6,72.11,72.11,0,0,1-3.42-17.83,61.17,61.17,0,0,1,1.65-18.13c2.94-11.87,9.62-22.57,18-31.35s18.39-15.88,27.94-23.18a149.87,149.87,0,0,0,13.73-11.59,65.34,65.34,0,0,0,11.06-13.84,53.39,53.39,0,0,0,6.22-16.46,73.53,73.53,0,0,0,1.22-17.68c-.4-11.89-2.52-23.84-7.63-34.49a58.21,58.21,0,0,0-9.83-14.53,54.57,54.57,0,0,0-4.74-4.51,56.59,56.59,0,0,0-7.15-5.15c-.63-.38-1.26-.75-1.9-1.11-10.28-5.72-22.11-8.37-33.92-8.89-1.45-.06-2.9-.1-4.35-.1V346.8c1.51,0,3,.07,4.53.14,11.65.61,23.42,3.21,33.88,8.75.52.28,1,.56,1.56.85a61.65,61.65,0,0,1,5.74,3.7,59.16,59.16,0,0,1,8.81,7.84A61.38,61.38,0,0,1,210.4,383.5c5.28,11.23,7.35,23.61,7.68,35.78A75.48,75.48,0,0,1,216.64,437.62Z"/>
<polygon class="cls-1" points="92.39 455.01 95.2 463.05 103.23 465.86 95.2 468.66 92.39 476.69 89.58 468.66 81.55 465.86 89.58 463.05 92.39 455.01"/>
<polygon class="cls-1" points="83.94 441.83 85.52 446.35 90.04 447.93 85.52 449.51 83.94 454.03 82.36 449.51 77.85 447.93 82.36 446.35 83.94 441.83"/>
<polygon class="cls-1" points="146.35 544.31 147.93 548.83 152.44 550.4 147.93 551.99 146.35 556.5 144.77 551.99 140.25 550.4 144.77 548.83 146.35 544.31"/>
<polygon class="cls-1" points="77.85 454.03 79.02 457.38 82.36 458.55 79.02 459.72 77.85 463.06 76.68 459.72 73.33 458.55 76.68 457.38 77.85 454.03"/>
<polygon class="cls-1" points="207.78 368.98 210.59 377.01 218.62 379.82 210.59 382.63 207.78 390.66 204.97 382.63 196.94 379.82 204.97 377.01 207.78 368.98"/>
<polygon class="cls-1" points="180.69 374.79 182.27 379.31 186.79 380.88 182.27 382.46 180.69 386.98 179.11 382.46 174.59 380.88 179.11 379.31 180.69 374.79"/>
<polygon class="cls-1" points="179.84 362.94 181.01 366.29 184.36 367.46 181.01 368.63 179.84 371.98 178.67 368.63 175.32 367.46 178.67 366.29 179.84 362.94"/>
<polygon class="cls-1" points="47.19 0 51.14 11.3 62.45 15.25 51.14 19.2 47.19 30.5 43.24 19.2 31.94 15.25 43.24 11.3 47.19 0"/>
<polygon class="cls-1" points="27.54 19.33 30.43 27.61 38.72 30.5 30.43 33.4 27.54 41.68 24.64 33.4 16.36 30.5 24.64 27.61 27.54 19.33"/>
<polygon class="cls-1" points="18.5 10.73 19.67 14.08 23.02 15.25 19.67 16.42 18.5 19.77 17.33 16.42 13.98 15.25 17.33 14.08 18.5 10.73"/>
<polygon class="cls-1" points="174.59 275.94 176.44 281.22 181.71 283.06 176.44 284.91 174.59 290.19 172.75 284.91 167.47 283.06 172.75 281.22 174.59 275.94"/>
<polygon class="cls-1" points="154.34 275.94 155.78 280.06 159.9 281.5 155.78 282.94 154.34 287.05 152.9 282.94 148.78 281.5 152.9 280.06 154.34 275.94"/>
<polygon class="cls-1" points="164.15 289.29 165.32 292.64 168.67 293.81 165.32 294.98 164.15 298.33 162.98 294.98 159.63 293.81 162.98 292.64 164.15 289.29"/>
<polygon class="cls-1" points="127.5 550.4 128.67 553.75 132.01 554.92 128.67 556.09 127.5 559.44 126.33 556.09 122.98 554.92 126.33 553.75 127.5 550.4"/>
<path class="cls-1" d="M139.33,559.44a27.71,27.71,0,0,1-1.12-9.89,27.28,27.28,0,0,1,2.35-9.76,26.75,26.75,0,0,1,5.66-8.28,33.75,33.75,0,0,1,3.78-3.29,6.63,6.63,0,0,1,1-.71l1.07-.65c.71-.44,1.42-.87,2.13-1.28-1.29,1-2.69,1.93-3.92,3a33.66,33.66,0,0,0-3.52,3.44c-.52.63-1.09,1.21-1.59,1.86l-1.4,2a18.38,18.38,0,0,0-1.24,2.1l-.59,1.07c-.2.35-.32.74-.49,1.11a30.61,30.61,0,0,0-2.5,9.42c-.08.81-.11,1.63-.18,2.45s0,1.64,0,2.46A30.2,30.2,0,0,0,139.33,559.44Z"/>
<path class="cls-1" d="M133.33,551.58a25.86,25.86,0,0,0-1.06-5.15,21.87,21.87,0,0,0-2.1-4.74A19.41,19.41,0,0,0,127,537.6a28.7,28.7,0,0,0-4-3.36c.4.18.81.37,1.21.57a9,9,0,0,1,1.19.63,15.38,15.38,0,0,1,2.18,1.59,17.4,17.4,0,0,1,1.92,1.92c.3.34.54.73.81,1.09a9.36,9.36,0,0,1,.74,1.15,17,17,0,0,1,2,5A15.63,15.63,0,0,1,133.33,551.58Z"/>
<path class="cls-1" d="M128.16,546.91a26.89,26.89,0,0,0-3.82-1.22c-1.29-.32-2.59-.57-3.9-.76s-2.63-.32-4-.41l-4-.21c.67-.16,1.34-.28,2-.4s1.35-.16,2-.17a22.43,22.43,0,0,1,4.09.2,20.3,20.3,0,0,1,4,1A12.3,12.3,0,0,1,128.16,546.91Z"/>
<path class="cls-1" d="M142.89,544.12a10.53,10.53,0,0,1,2.66-3.21,14.29,14.29,0,0,1,3.57-2.21,15.64,15.64,0,0,1,4-1.12,16.32,16.32,0,0,1,2.09-.15q1.05,0,2.07.15c-1.37.22-2.7.44-4,.77l-1,.25-1,.31c-.64.18-1.25.46-1.87.7a21.24,21.24,0,0,0-3.5,1.92A19.23,19.23,0,0,0,142.89,544.12Z"/>
<path class="cls-1" d="M216.11,447.93a45.17,45.17,0,0,0,1.93-4.68c.59-1.57,1.1-3.18,1.59-4.79,1-3.22,1.75-6.49,2.44-9.78l.51-2.47.44-2.49c.33-1.65.52-3.33.81-5,.5-3.33.87-6.68,1.28-10,0,1.69-.07,3.38-.11,5.07s-.23,3.38-.41,5.07a94.88,94.88,0,0,1-1.54,10.05,81,81,0,0,1-2.69,9.82A45.94,45.94,0,0,1,216.11,447.93Z"/>
<path class="cls-1" d="M209.11,445.35c.36-1.11.69-2.23.94-3.36s.49-2.27.67-3.41a43.17,43.17,0,0,0,.54-6.9,39.64,39.64,0,0,0-.53-6.88,50.59,50.59,0,0,0-1.62-6.78c.25.53.5,1.06.73,1.6a16.42,16.42,0,0,1,.67,1.63,30.67,30.67,0,0,1,1,3.4,29.27,29.27,0,0,1,.61,3.49c.07.59.08,1.18.12,1.77a17.55,17.55,0,0,1,0,1.78,31.38,31.38,0,0,1-.79,7A26.2,26.2,0,0,1,209.11,445.35Z"/>
<path class="cls-1" d="M81.55,414.17a40.12,40.12,0,0,1,1,8.95,44,44,0,0,1-.87,9,33.67,33.67,0,0,1-3,8.55,27.75,27.75,0,0,1-5.35,7.25c.44-.61.88-1.22,1.33-1.81.22-.3.45-.59.66-.9l.57-1c.37-.64.8-1.25,1.14-1.91l1-2a41.62,41.62,0,0,0,2.7-8.43,57.78,57.78,0,0,0,1.08-8.81c.07-1.49.09-3,0-4.47S81.69,415.66,81.55,414.17Z"/>
<path class="cls-1" d="M86,431.69a52.06,52.06,0,0,0,3.36,9.11,58.87,58.87,0,0,0,11,15.83,69.82,69.82,0,0,0,7.29,6.43c-.69-.43-1.38-.87-2.06-1.32s-1.38-.87-2-1.39a47.56,47.56,0,0,1-3.75-3.17,43.84,43.84,0,0,1-6.43-7.44,44.94,44.94,0,0,1-4.72-8.63c-.63-1.52-1.17-3.06-1.65-4.63A32.91,32.91,0,0,1,86,431.69Z"/>
<path class="cls-1" d="M103.23,453.58a21.11,21.11,0,0,0,2.17,1.95c.75.62,1.54,1.19,2.32,1.76,1.59,1.12,3.23,2.15,4.91,3.12s3.39,1.89,5.11,2.8l5.24,2.65c-1-.26-1.88-.58-2.82-.87s-1.85-.69-2.75-1.07a45.82,45.82,0,0,1-5.29-2.65,35.21,35.21,0,0,1-4.87-3.37A19.63,19.63,0,0,1,103.23,453.58Z"/>
<path class="cls-1" d="M0,96.54A81.35,81.35,0,0,1,1.36,82.2a88.78,88.78,0,0,1,3.7-14,67.61,67.61,0,0,1,6.32-13,54.14,54.14,0,0,1,4.3-5.81,46.25,46.25,0,0,1,5.14-5A55.89,55.89,0,0,0,12,55.66,72.77,72.77,0,0,0,6,68.59,97.58,97.58,0,0,0,2.12,82.35C1.61,84.68,1.19,87,.84,89.4S.2,94.15,0,96.54Z"/>
<path class="cls-1" d="M9.7,120.83a72,72,0,0,1,.05-12.54A84.22,84.22,0,0,1,11.8,95.87,65.66,65.66,0,0,1,16.08,84,47.61,47.61,0,0,1,23,73.58a60.75,60.75,0,0,0-3.39,5.24c-.5.91-1.08,1.78-1.52,2.72l-1.33,2.82a71.5,71.5,0,0,0-4,11.76,95.85,95.85,0,0,0-2.26,12.24c-.26,2.07-.46,4.14-.58,6.22S9.72,118.74,9.7,120.83Z"/>
</g
></g>
 <svg xmlns="http://www.w3.org/2000/svg" viewBox="0 0 299.89 600.95"></svg>